<?xml version="1.0" encoding="utf-8"?>
<!-- Generator: Adobe Illustrator 26.5.0, SVG Export Plug-In . SVG Version: 6.00 Build 0)  -->
<svg version="1.1" id="Ebene_1" xmlns="http://www.w3.org/2000/svg" xmlns:xlink="http://www.w3.org/1999/xlink" x="0px" y="0px"
	 viewBox="0 0 198.6 218.9" style="enable-background:new 0 0 198.6 218.9;" xml:space="preserve">
<style type="text/css">
	.st0{fill:#40C900;}
	.st1{fill:#EAA200;}
	.st2{fill:#EA4747;}
</style>
<g>
	<path class="st1" d="M75.4,150.8C33.8,150.8,0,117,0,75.4S33.8,0,75.4,0s75.4,33.8,75.4,75.4S116.9,150.8,75.4,150.8z M75.4,8.6
		c-36.8,0-66.8,30-66.8,66.8s30,66.8,66.8,66.8s66.8-30,66.8-66.8C142.2,38.6,112.2,8.6,75.4,8.6z"/>
	<path class="st1" d="M103.7,105.6H47c-2.4,0-4.3-1.9-4.3-4.3S44.6,97,47,97h56.7c2.4,0,4.3,1.9,4.3,4.3
		C108,103.6,106.1,105.6,103.7,105.6z"/>
	<ellipse class="st1" cx="49.1" cy="65" rx="9.9" ry="11.6"/>
	<ellipse class="st1" cx="101.7" cy="65" rx="9.9" ry="11.6"/>
	<g>
		<g>
			<path class="st1" d="M142.3,218.9c-8.1,0-14.7-6.6-14.7-14.7v-22.5c-3.7,1.6-10.6,4.3-21.3,4.4c-0.1,0-0.1,0-0.2,0
				c-14.4,0-20.5-8.3-21.5-16.1c-0.7-5.6,3.1-10.5,8.9-11.4c7.7-1.2,18.3-5.1,32.3-12c8.5-4.2,15.1-7,28.8-7c7.2,0,15.8,0,16.1,0
				c17.2,0.5,27.9,10.5,27.9,26.3c0,9.8-0.1,30.4-0.1,30.4c0,8.4-6.9,15.3-15.3,15.3c-2.8,0-5.4-0.7-7.6-1.9
				c-2.8,4.4-7.7,7.4-13.2,7.4c-3.3,0-6.4-1.1-9-3C150.6,217.1,146.5,218.9,142.3,218.9z M129.1,172.3c4.4,0,7.1,2.8,7.1,7.2v24.8
				c0,3.3,2.7,6.1,6.1,6.1c2.9,0,5.7-2.1,6.4-4.7c0.5-1.8,2-3.1,3.9-3.2c1.9-0.1,3.6,1,4.3,2.7c0.8,2,3.2,3.5,5.5,3.5
				c3.6,0,7-3.4,7-7c0-2.1,1.5-3.9,3.5-4.2c2-0.4,4.1,0.8,4.8,2.7c0.7,1.8,2.9,3,5.4,3c3.7,0,6.7-3,6.7-6.7c0,0,0.1-20.5,0.1-30.4
				c0-14.9-12.2-17.5-19.5-17.7c-0.5,0-9.7,0-15.9,0c-11.4,0-16.6,1.9-24.9,6.1c-14.8,7.3-26.2,11.5-34.8,12.8
				c-0.3,0-1.8,0.4-1.6,1.8c0.3,2.6,2.2,8.6,13,8.6h0.1c9.8,0,15.6-2.6,18.7-4C126.6,172.8,127.7,172.3,129.1,172.3z"/>
		</g>
		<path class="st1" d="M152.9,210.7c-2.4,0-4.3-1.9-4.3-4.3v-12.2c0-2.4,1.9-4.3,4.3-4.3c2.4,0,4.3,1.9,4.3,4.3v12.2
			C157.2,208.8,155.3,210.7,152.9,210.7z"/>
		<path class="st1" d="M173.7,205.7c-2.4,0-4.3-1.9-4.3-4.3v-7.3c0-2.4,1.9-4.3,4.3-4.3c2.4,0,4.3,1.9,4.3,4.3v7.3
			C178,203.8,176.1,205.7,173.7,205.7z"/>
	</g>
</g>
</svg>
