<?xml version="1.0" encoding="utf-8"?>
<!-- Generator: Adobe Illustrator 26.5.0, SVG Export Plug-In . SVG Version: 6.00 Build 0)  -->
<svg version="1.1" id="Ebene_1" xmlns="http://www.w3.org/2000/svg" xmlns:xlink="http://www.w3.org/1999/xlink" x="0px" y="0px"
	 viewBox="0 0 227.3 232.8" style="enable-background:new 0 0 227.3 232.8;" xml:space="preserve">
<style type="text/css">
	.st0{fill:#EA4747;}
</style>
<g>
	<path class="st0" d="M75.4,150.8C33.8,150.8,0,117,0,75.4S33.8,0,75.4,0s75.4,33.8,75.4,75.4S117,150.8,75.4,150.8z M75.4,8.6
		c-36.8,0-66.8,30-66.8,66.8s30,66.8,66.8,66.8s66.8-30,66.8-66.8C142.2,38.6,112.2,8.6,75.4,8.6z"/>
	<path class="st0" d="M104.2,111.1c-1.5,0-3-0.8-3.8-2.2c-4.4-8.1-14.2-13.3-25-13.3s-20.6,5.2-25,13.3c-1.1,2.1-3.8,2.9-5.8,1.7
		c-2.1-1.1-2.9-3.8-1.7-5.8C48.8,94,61.5,87,75.4,87s26.6,7,32.5,17.8c1.1,2.1,0.4,4.7-1.7,5.8C105.6,111,104.9,111.1,104.2,111.1z"
		/>
	<ellipse class="st0" cx="49.1" cy="64" rx="9.9" ry="11.6"/>
	<ellipse class="st0" cx="101.7" cy="64" rx="9.9" ry="11.6"/>
	<g>
		<path class="st0" d="M192.1,232.8c-0.5,0-0.9,0-1.4-0.1c-8.3-1-17.2-7.6-17.1-23.1c0.1-12,3.2-19.5,4.9-23.3h-27
			c-8.6,0-15.5-7-15.5-15.5c0-4.6,2.1-9,5.4-12c-2.1-2.7-3.4-6.2-3.4-9.7c0-5.9,3.3-11.2,8.1-14.1c-1.4-2.4-2.2-5.2-2.2-8.3
			c0-8.9,7.3-16.2,16.2-16.2c0.2,0,25-0.1,37.2-0.1c16.6,0,29.5,12.8,30,29.8c0,0.3,0,6.1,0,17.4c0,12.9-4.9,19.9-9.7,26.6
			c-0.7,1.1-1.5,2.1-2.3,3.2c-9.3,13.7-11.9,30.5-12.7,36.1C201.7,229,197.3,232.8,192.1,232.8z M192.1,119c-12.9,0-31.7,0.1-32,0.1
			c-4.2,0-7.6,3.4-7.6,7.6c0,2.9,1.4,5.4,3.5,6.2c1.9,0.7,3.1,2.8,2.7,4.8c-0.4,2-2.2,3.5-4.2,3.5c-4.2,0-8,3.8-8,7.9
			c0,2.6,1.8,5.4,4,6.3c1.7,0.7,2.8,2.4,2.7,4.3c-0.1,1.9-1.4,3.4-3.2,3.9c-3,0.7-5.4,4-5.4,7.3c0,3.8,3.1,6.9,6.9,6.9h28.9
			c4.6,0,7.4,2.7,7.4,7.4c0,1.4-0.5,2.6-1.3,4.3c-1.5,3.4-4.3,9.6-4.4,20.3c-0.1,12,6.7,14.1,9.6,14.5c1.5,0.2,2.2-1,2.3-2.1
			c2.5-16.3,7.2-29.3,14.1-39.6c0.8-1.2,1.6-2.3,2.4-3.4c4.5-6.4,8.1-11.4,8.1-21.6c0-6.6,0-16.6,0-17.2
			c-0.4-12.1-9.6-21.3-21.4-21.4C195.7,119,194,119,192.1,119z M180.7,186.3L180.7,186.3L180.7,186.3z"/>
		<path class="st0" d="M162.4,163.7h-13.2c-2.4,0-4.3-1.9-4.3-4.3c0-2.4,1.9-4.3,4.3-4.3h13.2c2.4,0,4.3,1.9,4.3,4.3
			C166.8,161.7,164.8,163.7,162.4,163.7z"/>
		<path class="st0" d="M162.4,141.2h-7.8c-2.4,0-4.3-1.9-4.3-4.3c0-2.4,1.9-4.3,4.3-4.3h7.8c2.4,0,4.3,1.9,4.3,4.3
			C166.8,139.2,164.8,141.2,162.4,141.2z"/>
	</g>
</g>
</svg>
