<?xml version="1.0" encoding="utf-8"?>
<!-- Generator: Adobe Illustrator 26.5.0, SVG Export Plug-In . SVG Version: 6.00 Build 0)  -->
<svg version="1.1" id="Ebene_1" xmlns="http://www.w3.org/2000/svg" xmlns:xlink="http://www.w3.org/1999/xlink" x="0px" y="0px"
	 viewBox="0 0 213.9 209.4" style="enable-background:new 0 0 213.9 209.4;" xml:space="preserve">
<style type="text/css">
	.st0{fill:#40C900;}
	.st1{fill:#EAA200;}
	.st2{fill:#EA4747;}
</style>
<g>
	<g>
		<path class="st0" d="M178.7,209.3c-12.9,0-31.8-0.1-32-0.1c-8.9,0-16.2-7.3-16.2-16.2c0-3.1,0.8-5.9,2.2-8.3
			c-4.8-2.9-8.1-8.2-8.1-14.1c0-3.6,1.3-7,3.4-9.7c-3.3-3-5.4-7.4-5.4-12c0-8.6,7-15.5,15.5-15.5h27c-1.7-3.8-4.9-11.3-4.9-23.3
			c-0.1-15.4,8.8-22,17.1-23.1c5.9-0.7,11,3.3,11.9,9.3c0.9,5.5,3.5,22.4,12.7,36.1c0.8,1.1,1.5,2.2,2.3,3.2
			c4.8,6.7,9.7,13.7,9.7,26.6c0,11.3,0,17.1,0,17.4c-0.5,16.9-13.4,29.7-30,29.8C182.3,209.3,180.6,209.3,178.7,209.3z M138.1,142
			c-3.8,0-6.9,3.1-6.9,6.9c0,3.3,2.4,6.5,5.4,7.3c1.8,0.5,3.1,2,3.2,3.9s-1,3.6-2.7,4.3c-2.2,0.9-4,3.7-4,6.3c0,4.1,3.8,7.9,8,7.9
			c2.1,0,3.9,1.5,4.2,3.5c0.4,2-0.8,4.1-2.7,4.8c-2.1,0.8-3.5,3.3-3.5,6.2c0,4.2,3.4,7.6,7.6,7.6c0.3,0,25,0.1,37.1,0.1
			c11.8,0,21-9.2,21.4-21.4c0-0.5,0-10.5,0-17.1c0-10.2-3.6-15.2-8.1-21.6c-0.8-1.1-1.6-2.2-2.4-3.4c-7-10.3-11.6-23.2-14.1-39.6
			c-0.2-1.1-0.9-2.3-2.3-2.1c-2.9,0.4-9.6,2.5-9.6,14.5c0,10.7,2.8,16.9,4.4,20.3c0.8,1.8,1.3,2.9,1.3,4.3c0,4.6-2.8,7.4-7.4,7.4
			h-28.9V142z"/>
		<path class="st0" d="M149,164.6h-13.2c-2.4,0-4.3-1.9-4.3-4.3c0-2.4,1.9-4.3,4.3-4.3H149c2.4,0,4.3,1.9,4.3,4.3
			C153.4,162.7,151.4,164.6,149,164.6z"/>
		<path class="st0" d="M149,187.1h-7.8c-2.4,0-4.3-1.9-4.3-4.3c0-2.4,1.9-4.3,4.3-4.3h7.8c2.4,0,4.3,1.9,4.3,4.3
			C153.4,185.2,151.4,187.1,149,187.1z"/>
	</g>
	<path class="st0" d="M75.4,150.8C33.8,150.8,0,117,0,75.4S33.8,0,75.4,0s75.4,33.8,75.4,75.4S117,150.8,75.4,150.8z M75.4,8.6
		c-36.8,0-66.8,30-66.8,66.8s30,66.8,66.8,66.8s66.8-30,66.8-66.8S112.2,8.6,75.4,8.6z"/>
	<path class="st0" d="M75.4,122.7c-16.9,0-32.7-11.3-36.7-26.3c-0.3-1.3-0.1-2.7,0.7-3.7c0.8-1.1,2.1-1.7,3.4-1.7h65.1
		c1.4,0,2.6,0.6,3.5,1.7c0.8,1.1,1.1,2.5,0.7,3.8C107.3,112.2,92.6,122.7,75.4,122.7z M49.3,99.6c4.9,8.5,15.4,14.5,26.1,14.5
		c11.2,0,21-5.7,26.1-14.5H49.3z"/>
	<ellipse class="st0" cx="49.1" cy="65" rx="9.9" ry="11.6"/>
	<ellipse class="st0" cx="101.7" cy="65" rx="9.9" ry="11.6"/>
</g>
</svg>
